<svg viewBox="0 0 105.52 106.85" xmlns="http://www.w3.org/2000/svg" data-sanitized-data-name="Layer 2" data-name="Layer 2" id="Layer_2">
  <defs>
    <style>
      .cls-1 {
        fill: #e9b293;
      }

      .cls-2 {
        fill: #86e695;
      }

      .cls-3 {
        fill: #2d2a1e;
      }

      .cls-4 {
        fill: #dbae5e;
      }

      .cls-5 {
        fill: #1e1e1c;
      }

      .cls-6 {
        fill: #292f28;
      }

      .cls-7 {
        fill: #362222;
      }

      .cls-8 {
        fill: #e3544e;
      }

      .cls-9 {
        fill: #75c680;
      }

      .cls-10 {
        fill: #171415;
      }
    </style>
  </defs>
  <g data-sanitized-data-name="Layer 1" data-name="Layer 1" id="Layer_1-2">
    <path d="m89.31,10.46c-.26.68-.5,1.37-.78,2.04-.27.63-.58,1.25-1.1,2.36,1.8-.11,3.11-.36,4.39-.25,4.17.35,8.34.78,12.49,1.32.49.06,1.2,1,1.21,1.55.01.55-.62,1.45-1.15,1.62-7.82,2.55-13.26,8.01-17.73,14.56-.56.83-.56,3.11-.03,3.44,11.33,7,14.61,17.57,13.72,30.07-.48-1.35-1.03-2.67-1.44-4.04-.49-1.63-.87-3.29-1.29-4.94-1.31-18.84-21.89-26.75-37.01-18.81-7.73,4.06-11.08,11.09-13.06,18.93-.45,1.8.27,4.72,1.57,6.02,7.6,7.62,15.52,14.91,23.49,22.45,1.25-1.07,3.14-2.68,5.03-4.28.33.36.67.72,1,1.08-.95,1.19-2.04,2.3-2.8,3.61-.62,1.07-.84,2.37-1.24,3.56-.46,1.36-.53,3.16-1.47,3.99-2.92,2.6-6.16,4.83-9.82,7.62,5.39,2.14,10.2,1.74,14.98.65,11.96-2.71,18.12-8.75,19.22-18.63.6-.7,1.35-1.31,1.77-2.11.51-.97.74-2.08,1.09-3.13.65,12.95-6.92,23.41-18.85,26.53-5.87,1.53-11.8,1.46-17.84.1-3.66-.82-7.87-1.19-11.42-.23-13.35,3.63-24.64-.76-34.97-8.43-3.75-2.78-6.46-6.97-9.64-10.51.29-.82.57-1.65.86-2.47.47.57.95,1.13,1.39,1.72,9.84,12.93,22.61,19.3,39.05,17.16,7.72-1,14.9-3.42,21.01-8.55,1.81-1.52,2.18-3.16.52-4.52-.87-.71-2.72-.4-4.09-.25-.63.07-1.17.87-1.76,1.32-11.47,8.73-28.13,8.82-37.63,2.34.55-.56,1.09-1.13,1.64-1.69,6.58,1.79,12.79,5.13,20.13,3.1,6.39-1.77,12.45-3.81,17.59-8.52-.85-1.05-1.4-1.86-2.08-2.54-7.69-7.67-15.43-15.28-23.09-22.98-6.18-6.21-12.32-12.46-18.32-18.83-1.57-1.67-2.86-2.23-4.74-.83-.27-.76-.55-1.53-.82-2.29-.42-2.51-.77-5.1-4.4-4.39-.27-.8-.54-1.6-.8-2.39,1.34-1.91,2.78-1.72,4.29-.2,8.44,8.54,16.89,17.07,25.31,25.62.92.93,1.7,2,2.86,3.39,1.48-6.81,3.34-13.14,8.04-18.11,1.78-1.88,3.56-3.91,5.72-5.25,1.95-1.21,2-2.19.94-3.83-3.93-6.1-8.86-10.98-15.85-13.55-1.41-.52-2.57-1.7-4.81-3.24,3.29-1.04,5.61-1.77,7.93-2.5.02.98.04,1.96.05,2.93.8.75,1.65,1.45,2.39,2.25,4.11,4.44,8.18,8.92,12.29,13.37.67.73,1.44,1.36,2.16,2.03l.56-2.84c.62,0,1.24,0,1.86,0,.65.5,1.29,1.39,1.96,1.42,3.8.14,7.6.07,11.35.07.62-8.84,2.86-16.62,8.26-23.26.62.05,1.24.1,1.87.16Zm9.31,6.74c-14.35-1.89-18.24,7.06-16.08,17.12,5.38-5.72,10.75-11.44,16.08-17.12Z" class="cls-5"></path>
    <path d="m8.52,84.14c-.29.82-.57,1.65-.86,2.47C-.08,75.4-1.76,63.27,1.74,50.17c1.88-7.05,5.93-12.68,10.37-18.18.27.8.54,1.6.8,2.39-.94,1.24-1.89,2.48-2.82,3.73-5.19,6.89-7.87,14.93-8.16,23.26-.28,8.01,2.5,15.72,6.59,22.77Z" class="cls-10"></path>
    <path d="m50.26.14c6.24.31,11.79,2.33,16.61,7.01,1.34-1.63,2.44-3.06,3.63-4.4.68-.76,1.66-2.05,2.24-1.92.99.22,1.89,1.28,2.59,2.17.96,1.22,1.7,2.61,2.54,3.93-.69.92-1.39,1.84-2.08,2.76-1.05-1.39-1.97-2.93-3.24-4.07-.34-.31-2.21.28-2.58.92-1.35,2.35,1.34,6.55,4.21,6.85.06,1.04.12,2.07.18,3.11,0,0-.04,0-.04,0l-3.55-.04c-3.67-6.35-8.29-11.51-16.02-12.75-2.57.16-4.42-.58-4.5-3.55Z" class="cls-6"></path>
    <path d="m50.26.14c.08,2.98,1.93,3.72,4.5,3.55.49,1.02.83,2.15,1.49,3.04,5.55,7.57,9.74,15.63,9.62,25.34-.62,0-1.24,0-1.86,0-.09-1.36-.13-2.74-.27-4.09-.81-7.58-4.4-10.18-10.79-10.8-2.09-.2-4.22.04-6.33.08-.02-.98-.04-1.96-.05-2.93,1.25,0,2.5.02,3.75.03.28.17.55.34.83.51,2.39.26,4.79.52,7.49.81-1.97-6.51-7.23-10-11.89-14.63,1.58-.4,2.56-.65,3.53-.9Z" class="cls-10"></path>
    <path d="m100.37,79.14c-.35,1.05-.58,2.17-1.09,3.13-.42.79-1.17,1.41-1.77,2.11.03-8.73.07-17.45.1-26.17.43,1.65.8,3.31,1.29,4.94.41,1.37.95,2.69,1.44,4.04.01,3.99.03,7.97.04,11.96Z" class="cls-3"></path>
    <path d="m75.8,9.68c.69-.92,1.39-1.84,2.08-2.76,3.7-1.91,7.39-3.85,11.12-5.69.71-.35,1.61-.33,2.42-.48-.26.98-.51,1.95-.77,2.93-3.06,1.44-6.51,2.4-9.08,4.45-2.82,2.25-4.83,5.52-7.19,8.35-.06-1.04-.12-2.07-.18-3.11.53-1.23,1.07-2.46,1.6-3.69Z" class="cls-10"></path>
    <path d="m90.65,3.68c.26-.98.51-1.95.77-2.93,1.17-.28,2.35-.83,3.49-.75,1.08.08,2.12.82,3.17,1.28-.57.88-1,1.89-1.73,2.6-2.29,2.25-4.69,4.39-7.04,6.57-.62-.05-1.24-.1-1.87-.16,1.07-2.21,2.14-4.41,3.2-6.62Z" class="cls-6"></path>
    <path d="m51.13,14.86c-.28-.17-.55-.34-.83-.51.28.17.55.34.83.51Z" class="cls-5"></path>
    <path d="m97.61,58.21c-.03,8.72-.07,17.45-.1,26.17-1.1,9.89-7.27,15.92-19.22,18.63-4.78,1.08-9.59,1.49-14.98-.65,3.65-2.78,6.9-5.02,9.82-7.62.93-.83,1.01-2.63,1.47-3.99.4-1.19.62-2.49,1.24-3.56.76-1.3,1.85-2.41,2.8-3.61-.33-.36-.67-.72-1-1.08-1.89,1.61-3.77,3.22-5.03,4.28-7.96-7.54-15.89-14.84-23.49-22.45-1.29-1.3-2.02-4.21-1.57-6.02,1.97-7.84,5.32-14.87,13.06-18.93,15.12-7.94,35.7-.03,37.01,18.81Zm-22-12.32c-.31.48-.62.95-.94,1.43,2.25,1.6,4.33,4.07,6.78,4.53,2.24.42,4.53-4.03,3.78-6.64-1.79,1.13-3.49,2.2-4.87,3.07-1.75-.88-3.25-1.64-4.75-2.39Zm17.89,36.51c-1,.32-1.6.33-1.84.62-2.03,2.51-4.02,3.06-6.42.36-.47-.53-1.79-.29-2.72-.41,2.37,2.33,2.83,7.16,7.02,5.73,2.22-.76,3.81-3.07,3.95-6.3Zm-33.55-37.09c-.35.5-.7,1.01-1.04,1.51,2.46,1.75,4.91,3.49,7.37,5.24.82-2.35,5.3-2.65,3.55-7.17-1.43,1.51-2.49,2.63-3.63,3.84-2.1-1.15-4.17-2.28-6.24-3.41Zm15.56,24.64c-.29.33-.58.66-.87.99,1.83,2.42,3.23,5.92,6.8,5.57,1.31-.13,4.71-2.19,3.72-5.76-1.8.86-3.47,2.36-4.93,2.18-1.67-.21-3.15-1.92-4.72-2.98Zm-2.76-9.14c-1.79-1.11-3.24-2.01-4.7-2.92l-1.07,1.44c1.98,1.6,3.9,4.41,5.96,4.5,2.53.12,4.73-2.4,5.69-6.43-2.55,1.47-4.28,2.47-5.88,3.4Zm-9.2-1.19c-.3-.47-.6-.94-.89-1.4-.66.16-1.53.11-1.96.52-2.23,2.09-4.25,3.47-6.05-.46-.14-.32-1.27-.18-1.95-.26-.27.33-.54.67-.81,1,1.71,1.69,3.49,4.81,5.1,4.72,2.25-.12,4.38-2.63,6.56-4.12Zm6.44,10.8c-1.56.89-3.14,2.52-4.67,2.49-1.81-.04-3.6-1.52-5.39-2.38-.29.45-.57.9-.86,1.35,2.34,1.67,4.53,3.67,7.09,4.85,1.16.53,4.07-4.49,3.83-6.32Zm24.23-10.82c-.3-.49-.59-.97-.89-1.46-.74.23-1.7.25-2.18.74-1.92,1.99-3.6,2.7-5.58,0-.42-.57-1.8-.45-2.73-.65-.17.33-.34.66-.51.99,1.89,1.64,3.77,4.54,5.68,4.56,2.06.02,4.14-2.67,6.21-4.18Z" class="cls-4"></path>
    <path d="m18.14,41.07c1.88-1.4,3.17-.84,4.74.83,6,6.38,12.15,12.62,18.32,18.83,7.66,7.7,15.4,15.31,23.09,22.98.68.68,1.23,1.49,2.08,2.54-5.14,4.71-11.2,6.75-17.59,8.52-7.34,2.03-13.55-1.31-20.13-3.1-.75-.45-1.49-.9-2.24-1.35-.53-.37-1.05-.74-1.58-1.1-10.38-7.61-15.14-17.9-14.11-30.66.53-6.54,3.79-12.15,7.41-17.49Zm32.94,38.47c-.6-.42-1.63-1.71-2.79-1.84-3.68-.41-7.56,2.62-7.61,5.54-.04,2.38,2.29,4.85,4.61,4.88,2.9.04,5.66-3.55,5.79-8.58Zm-23.58-24.11c-5.86-.54-9.38,1.31-9.46,4.85-.06,2.74,2.3,5.21,4.84,5.04,2.85-.19,6.17-3.27,4.62-9.88Zm3.25,20.78c6.42,1.01,7.81-2.56,8.85-6.4.57-2.12-.33-3.38-2.58-3.4-3.01-.03-6.07.8-7.04,3.7-.63,1.91.5,4.41.77,6.11Z" class="cls-8"></path>
    <path d="m8.52,84.14c-4.1-7.05-6.87-14.76-6.59-22.77.29-8.33,2.97-16.37,8.16-23.26.94-1.25,1.88-2.49,2.82-3.73,3.64-.71,3.98,1.88,4.4,4.39-.82,1.05-1.7,2.06-2.45,3.16-13.2,19.29-5.15,42.19,12.16,51.43,9.5,6.47,26.16,6.38,37.63-2.34.59-.45,1.13-1.25,1.76-1.32,1.37-.15,3.22-.46,4.09.25,1.66,1.36,1.29,3-.52,4.52-6.11,5.13-13.28,7.54-21.01,8.55-16.45,2.14-29.21-4.22-39.05-17.16-.45-.59-.93-1.14-1.39-1.72Z" class="cls-1"></path>
    <path d="m90.65,3.68c-1.07,2.21-2.14,4.41-3.2,6.62-5.4,6.64-7.64,14.41-8.26,23.26-3.75,0-7.56.07-11.35-.07-.67-.02-1.31-.92-1.96-1.42.12-9.71-4.07-17.77-9.62-25.34-.66-.9-1-2.02-1.49-3.04,7.74,1.25,12.36,6.4,16.02,12.75.62,1,1.24,2.01,2.41,3.9.57-1.93.85-2.89,1.14-3.86,0,0,.04,0,.04,0,2.36-2.83,4.37-6.09,7.19-8.35,2.57-2.06,6.02-3.01,9.08-4.45Z" class="cls-2"></path>
    <path d="m27.02,93.36C9.71,84.12,1.66,61.22,14.86,41.93c.75-1.1,1.63-2.11,2.45-3.16.27.76.55,1.53.82,2.29-3.62,5.35-6.88,10.96-7.41,17.49-1.03,12.76,3.73,23.05,14.11,30.66.53.37,1.05.74,1.58,1.1.75.45,1.49.9,2.24,1.35-.55.56-1.09,1.13-1.64,1.69Z" class="cls-10"></path>
    <path d="m46.6,17.25c2.11-.04,4.25-.28,6.33-.08,6.39.63,9.98,3.23,10.79,10.8.15,1.36.19,2.73.27,4.09-.19.95-.38,1.89-.56,2.84-.72-.68-1.49-1.31-2.16-2.03-4.1-4.45-8.18-8.92-12.29-13.37-.74-.8-1.59-1.5-2.39-2.25Z" class="cls-9"></path>
    <path d="m98.62,17.2c-5.34,5.68-10.7,11.39-16.08,17.12-2.15-10.05,1.73-19,16.08-17.12Z" class="cls-9"></path>
    <path d="m75.8,9.68c-.53,1.23-1.07,2.46-1.6,3.69-2.87-.3-5.56-4.5-4.21-6.85.37-.64,2.24-1.23,2.58-.92,1.27,1.15,2.19,2.68,3.24,4.07Z" class="cls-9"></path>
    <path d="m74.33,16.49c-.29.96-.57,1.93-1.14,3.86-1.17-1.89-1.79-2.89-2.41-3.9,1.18.01,2.36.03,3.55.04Z" class="cls-10"></path>
    <path d="m75.6,45.89c1.5.76,3.01,1.51,4.75,2.39,1.38-.87,3.08-1.94,4.87-3.07.75,2.61-1.54,7.05-3.78,6.64-2.46-.46-4.54-2.93-6.78-4.53.31-.48.62-.95.94-1.43Z" class="cls-3"></path>
    <path d="m93.49,82.4c-.15,3.23-1.73,5.55-3.95,6.3-4.19,1.43-4.65-3.4-7.02-5.73.93.12,2.25-.12,2.72.41,2.4,2.7,4.39,2.15,6.42-.36.24-.3.84-.3,1.84-.62Z" class="cls-3"></path>
    <path d="m59.94,45.31c2.07,1.13,4.14,2.27,6.24,3.41,1.14-1.21,2.2-2.33,3.63-3.84,1.76,4.52-2.73,4.82-3.55,7.17-2.46-1.75-4.91-3.49-7.37-5.24.35-.5.7-1.01,1.04-1.51Z" class="cls-3"></path>
    <path d="m75.5,69.95c1.56,1.06,3.05,2.76,4.72,2.98,1.46.18,3.13-1.31,4.93-2.18.99,3.57-2.4,5.63-3.72,5.76-3.57.35-4.97-3.15-6.8-5.57.29-.33.58-.66.87-.99Z" class="cls-3"></path>
    <path d="m72.74,60.82c1.6-.93,3.33-1.93,5.88-3.4-.95,4.03-3.16,6.55-5.69,6.43-2.05-.1-3.97-2.9-5.96-4.5l1.07-1.44c1.45.9,2.91,1.81,4.7,2.92Z" class="cls-6"></path>
    <path d="m63.54,59.63c-2.18,1.49-4.3,4-6.56,4.12-1.61.09-3.39-3.03-5.1-4.72.27-.33.54-.67.81-1,.67.08,1.8-.06,1.95.26,1.79,3.93,3.82,2.55,6.05.46.43-.41,1.3-.36,1.96-.52.3.47.6.94.89,1.4Z" class="cls-3"></path>
    <path d="m69.98,70.42c.24,1.83-2.68,6.85-3.83,6.32-2.57-1.18-4.75-3.18-7.09-4.85.29-.45.57-.9.86-1.35,1.8.86,3.58,2.34,5.39,2.38,1.54.03,3.11-1.6,4.67-2.49Z" class="cls-3"></path>
    <path d="m94.22,59.6c-2.07,1.51-4.15,4.19-6.21,4.18-1.9-.02-3.79-2.93-5.68-4.56.17-.33.34-.66.51-.99.94.2,2.31.07,2.73.65,1.98,2.7,3.65,1.99,5.58,0,.47-.49,1.44-.5,2.18-.74.3.49.59.97.89,1.46Z" class="cls-5"></path>
    <path d="m51.08,79.54c-.13,5.04-2.9,8.63-5.79,8.58-2.32-.03-4.65-2.5-4.61-4.88.05-2.92,3.94-5.95,7.61-5.54,1.16.13,2.19,1.42,2.79,1.84Z" class="cls-7"></path>
    <path d="m27.5,55.43c1.55,6.61-1.77,9.69-4.62,9.88-2.54.17-4.9-2.3-4.84-5.04.08-3.53,3.6-5.38,9.46-4.85Z" class="cls-7"></path>
    <path d="m30.75,76.21c-.26-1.7-1.4-4.2-.77-6.11.96-2.9,4.03-3.73,7.04-3.7,2.25.02,3.16,1.28,2.58,3.4-1.04,3.84-2.43,7.41-8.85,6.4Z" class="cls-7"></path>
    <path d="m26.42,90.32c-.53-.37-1.05-.74-1.58-1.1.53.37,1.05.74,1.58,1.1Z" class="cls-5"></path>
  </g>
</svg>