<svg viewBox="0 0 879.92 127.9" xmlns="http://www.w3.org/2000/svg" data-sanitized-data-name="Layer 1" data-name="Layer 1" id="Layer_1">
  <defs>
    <style>
      .cls-1 {
        fill: #fff;
      }

      .cls-2 {
        fill: #e9b293;
      }

      .cls-3 {
        fill: #86e695;
      }

      .cls-4 {
        fill: #2d2a1e;
      }

      .cls-5 {
        fill: #dbae5e;
      }

      .cls-6 {
        fill: #1e1e1c;
      }

      .cls-7 {
        fill: #292f28;
      }

      .cls-8 {
        fill: #362222;
      }

      .cls-9 {
        fill: #e3544e;
      }

      .cls-10 {
        fill: #75c680;
      }

      .cls-11 {
        fill: #171415;
      }
    </style>
  </defs>
  <path d="m857.44,101.37c-6.41.51-11.18-1.71-13.51-7.65-2.14-5.48-3.14-11.4-4.58-16.88-1.51,2.49-3.11,5.83-5.34,8.67-4.93,6.29-10.54,11.61-19.21,12.34-8.64.73-14.99-5.15-17.85-12.31-.76-1.89-1.51-3.78-2.34-5.86-2.71,5.36-4.77,10.6-7.87,15.11-1.96,2.86-5.16,5.62-8.38,6.7-6.35,2.13-9.06,1.18-13.09-3.51-4.56-5.31-6.04-11.83-7.4-18.85-.93,2.18-1.72,4.43-2.83,6.51-2.07,3.89-3.9,8-6.58,11.44-6.43,8.23-17.08,7.15-21.76-2.18-2.19-4.37-3.49-9.2-5.47-14.58-1.27,3.2-2.22,6.14-3.57,8.89-1.63,3.32-3.18,6.82-5.5,9.64-4.69,5.7-12.74,4.72-15.64-2.01-1.79-4.14-2.31-8.82-3.41-13.26-.06-.46-.12-.91-.18-1.37-.46.5-.93,1-1.39,1.51,0,.22-.05.44-.13.65-.21.77-.42,1.54-.63,2.31-.11.46-.22.93-.33,1.39-1.15-.74-2.3-1.49-3.45-2.23.53-1.37,1.15-2.71,1.56-4.11,2.39-8.06,4.73-16.13,7.09-24.2,3.83-2.68,7.36-1.33,10.84.78.23,3.19.82,6.41.61,9.57-.51,7.45-1.56,14.86-2.04,22.31-.13,2.01,1.03,4.09,1.6,6.14.46.15.92.29,1.38.44,1.46-1.74,3.33-3.28,4.33-5.25,5.44-10.78,8.92-22.05,9.95-34.24.8-9.46,2.49-19.03,8.03-27.18,3.11-4.57,7.07-7.99,13.29-7.83,3.71.1,5.7,2.02,6.93,4.97,1.78,4.3,1.58,8.82.69,13.3-2.14,10.69-7.05,19.86-15.05,27.34-.7.66-1.31,1.88-1.26,2.8.4,6.72.73,13.47,1.65,20.13.27,1.94,2.13,4.78,3.7,5.11,1.73.36,4.76-1.17,5.84-2.8,6.23-9.4,11.23-19.26,12.03-30.95.67-9.87,2.11-19.78,6.8-28.72,1.68-3.21,4.27-6.05,6.84-8.67,3.19-3.24,7.63-3.29,11.41-1.97,2.04.71,4.41,3.86,4.52,6.01.26,5.18-.39,10.48-1.29,15.63-1.62,9.29-6.69,16.69-13.61,22.95-.72.65-1.31,1.94-1.25,2.9.39,6.74.72,13.5,1.62,20.18.27,2.01,2.14,5.17,3.56,5.33,1.93.22,5.01-1.4,6.06-3.16,3.79-6.35,6.97-13.06,10.31-19.68,3.08-6.12,5.32-12.82,9.28-18.3,5.25-7.27,13.37-8.47,21.67-6.03,8.2,2.41,9.34,11.8,4.46,17.7-4.38,5.3-10.35,8.3-16.66,10.52-3.09,1.08-4.25,2.05-3.15,5.66,3.14,10.39,10.11,10.29,17.35,5.22,3.13-2.2,5.45-5.62,7.94-8.64,2.44-2.96,4.73-6.05,6.89-9.22.63-.92.85-2.28.87-3.44.09-4.73.11-9.46-.03-14.19-.06-2.13.88-3.04,2.79-3,7.61.17,9.79,1.53,9.9,8.88.1,7.04-.52,14.08-.6,21.12-.04,3.3.13,6.69.87,9.88.37,1.59,2.23,2.83,3.41,4.23,1.22-1.09,3.16-1.97,3.54-3.3,1.61-5.57,3.1-11.23,3.98-16.96.91-5.93,1.23-11.97,1.49-17.97.17-4.01,2-5.29,5.85-5.19,6.02.16,7.2.9,6.92,6.67-.6,12.29-1.16,24.6-2.31,36.85-.68,7.23-2.03,14.47-3.89,21.5-.87,3.27-3.68,6.02-5.61,9.01-.29.25-.58.51-.87.76-.18.17-.36.33-.54.5-.87-2.03-1.74-4.06-2.62-6.1l1.24-11.34-1.23-.19c-2.6,4.09-7.57,7.23-5.08,13.38l-3.73,4.43c-3.49-4.42-2.68-9.08-.23-13.46,1.66-2.97,4.11-5.5,6.21-8.23,3.57-2.61,5.75-5.73,4.07-10.27-2.69,2.7-5.27,5.28-7.85,7.86Zm-77.53-74.2c-6.15,10.5-6.91,21.41-7.84,32.82,7.62-3.77,12.27-23.34,7.84-32.82Zm-35.9,1.2c-4.37,2.41-9.59,22.55-7.94,30.61,6.46-.79,11.63-20.69,7.94-30.61Zm64.11,44.37c7.38-1.48,11.85-5.7,12.73-12.35.21-1.6-.75-3.35-1.17-5.04-2.02.55-4.81.44-5.91,1.76-3.7,4.4-5.53,9.73-5.64,15.64Z" class="cls-1"></path>
  <path d="m399.12,10.57h3.73c-.67,2.47-1.34,4.92-2.01,7.38-.25-.06-.5-.12-.75-.17l1.27,2.97c-3.76-.37-5.2.66-5.3,5.07-.17,7.13-1.69,14.23-2.73,22,2.59,0,5.29-.28,7.89.11,1.38.21,3.73,1.66,3.67,2.38-.22,2.55-.64,5.55-4.33,5.68-1.24.04-2.49.02-3.74,0-3.25-.07-4.79.8-5.33,4.71-1.89,13.64-4.56,27.17-11.39,39.4-2.26,4.04-5.44,7.15-10.6,6.63-1.34-.13-2.85-.73-3.86-1.59-5.36-4.59-8.04-10.91-10.51-17.26-1.58-4.06-2.25-8.48-3.99-12.46-1.18-2.69.17-3.6,1.8-4.74,4.81-3.38,8.21-1.96,9.68,3.53,2.01,7.52,4.32,14.97,6.73,22.37.37,1.12,2,1.83,3.05,2.73.76-.94,1.97-1.79,2.21-2.85,1.3-5.79,2.71-11.6,3.41-17.48.84-7.03,1.01-14.14,1.49-21.49-4.62,0-9.22-.11-13.81.05-2.52.09-4.03-.52-4.07-3.32-.04-3.36,1.6-5.67,4.39-5.71,4.89-.07,9.78-.02,14.68-.02.66-9.49,1.25-17.94,1.89-27.01-3.61.22-7.26.49-10.92.67-7.41.35-14.82.7-22.23.9-.95.03-2.63-.7-2.78-1.35-.65-2.79-1.34-5.76-.96-8.52.12-.89,3.49-1.84,5.39-1.88,9.72-.22,19.44-.23,29.16-.13,2.74.03,4.13-.45,4.08-3.65-.02-1.22,1.61-2.66,2.8-3.63.76-.63,2.06-.75,3.13-.82,7.37-.44,8.55-.79,8.18,7.19.23.1.46.21.68.31Z" class="cls-1"></path>
  <path d="m635.17,93.2c5.18-1.98,7.08-6.25,8.94-10.13,5.5-11.51,10.06-23.35,11.55-36.19.7-6.01,1.44-11.92.19-17.98-1.1-5.33-4.91-7.23-9.43-7.88-3.51-.5-3.02-2.04-2.05-4.25,1.49-3.4,4.74-5.23,8.7-4.89,4.63.4,8.71,3.77,10.01,7.95,2.52,8.12,1.78,16.33-.21,24.24-3.62,14.38-7.82,28.65-14.85,41.83-2,3.75-4.76,7.22-7.67,10.35-3.44,3.69-10.79,3.27-14.23-.41-3.7-3.96-5.3-8.95-5.51-14.14-.35-8.82-.35-17.67-.1-26.49.27-9.11,1.01-18.22,1.57-27.32.04-.67.15-1.56.58-1.96,3.36-3.05,7.06-.94,10.52-.3,2.23.41,3.17,2.46,3,4.93-.57,8.35-1.17,16.7-1.48,25.06-.4,11.01-.58,22.04-.74,33.06-.02,1.36.7,2.74,1.19,4.53Z" class="cls-1"></path>
  <path d="m304.32,10.46c-.26.68-.5,1.37-.78,2.04-.27.63-.58,1.25-1.1,2.36,1.8-.11,3.11-.36,4.39-.25,4.17.35,8.34.78,12.49,1.32.49.06,1.2,1,1.21,1.55.01.55-.62,1.45-1.15,1.62-7.82,2.55-13.26,8.01-17.73,14.56-.56.83-.56,3.11-.03,3.44,11.33,7,14.61,17.57,13.72,30.07-.48-1.35-1.03-2.67-1.44-4.04-.49-1.63-.87-3.29-1.29-4.94-1.31-18.84-21.89-26.75-37.01-18.81-7.73,4.06-11.08,11.09-13.06,18.93-.45,1.8.27,4.72,1.57,6.02,7.6,7.62,15.52,14.91,23.49,22.45,1.25-1.07,3.14-2.68,5.03-4.28.33.36.67.72,1,1.08-.95,1.19-2.04,2.3-2.8,3.61-.62,1.07-.84,2.37-1.24,3.56-.46,1.36-.53,3.16-1.47,3.99-2.92,2.6-6.16,4.83-9.82,7.62,5.39,2.14,10.2,1.74,14.98.65,11.96-2.71,18.12-8.75,19.22-18.63.6-.7,1.35-1.31,1.77-2.11.51-.97.74-2.08,1.09-3.13.65,12.95-6.92,23.41-18.85,26.53-5.87,1.53-11.8,1.46-17.84.1-3.66-.82-7.87-1.19-11.42-.23-13.35,3.63-24.64-.76-34.97-8.43-3.75-2.78-6.46-6.97-9.64-10.51.29-.82.57-1.65.86-2.47.47.57.95,1.13,1.39,1.72,9.84,12.93,22.61,19.3,39.05,17.16,7.72-1,14.9-3.42,21.01-8.55,1.81-1.52,2.18-3.16.52-4.52-.87-.71-2.72-.4-4.09-.25-.63.07-1.17.87-1.76,1.32-11.47,8.73-28.13,8.82-37.63,2.34.55-.56,1.09-1.13,1.64-1.69,6.58,1.79,12.79,5.13,20.13,3.1,6.39-1.77,12.45-3.81,17.59-8.52-.85-1.05-1.4-1.86-2.08-2.54-7.69-7.67-15.43-15.28-23.09-22.98-6.18-6.21-12.32-12.46-18.32-18.83-1.57-1.67-2.86-2.23-4.74-.83-.27-.76-.55-1.53-.82-2.29-.42-2.51-.77-5.1-4.4-4.39-.27-.8-.54-1.6-.8-2.39,1.34-1.91,2.78-1.72,4.29-.2,8.44,8.54,16.89,17.07,25.31,25.62.92.93,1.7,2,2.86,3.39,1.48-6.81,3.34-13.14,8.04-18.11,1.78-1.88,3.56-3.91,5.72-5.25,1.95-1.21,2-2.19.94-3.83-3.93-6.1-8.86-10.98-15.85-13.55-1.41-.52-2.57-1.7-4.81-3.24,3.29-1.04,5.61-1.77,7.93-2.5.02.98.04,1.96.05,2.93.8.75,1.65,1.45,2.39,2.25,4.11,4.44,8.18,8.92,12.29,13.37.67.73,1.44,1.36,2.16,2.03l.56-2.84c.62,0,1.24,0,1.86,0,.65.5,1.29,1.39,1.96,1.42,3.8.14,7.6.07,11.35.07.62-8.84,2.86-16.62,8.26-23.26.62.05,1.24.1,1.87.16Zm9.31,6.74c-14.35-1.89-18.24,7.06-16.08,17.12,5.38-5.72,10.75-11.44,16.08-17.12Z" class="cls-6"></path>
  <path d="m501.69,103.79c.75-2.24,1.5-4.47,2.25-6.71,1.5.51,3,1.02,4.5,1.53-.66,2.3-1.33,4.6-2.03,7.05,6.02.67,9.67-5.1,7.82-10.71.92-2.97,1.02-5.56-2.9-6.3,1.16-1.26,2.32-2.52,3.69-4.01-2.98-3.1-5.86-6.23-8.95-9.14-.44-.42-2.32-.14-2.8.43-2.24,2.7-4.22,5.61-6.3,8.44-.74-.81-1.48-1.61-2.23-2.42.72-1.11,1.27-2.39,2.18-3.31,4.98-5,4.72-11.67,6.3-17.88,2.65-10.45,12.78-15.47,23.13-11.8,1.89.67,4.15,3.88,4.03,5.79-.16,2.66-1.88,5.73-3.88,7.62-1.75,1.64-4.82,1.88-8.07,3,1.06-4.14,1.96-7.63,2.88-11.22-3.32-.76-5.48-.38-6.93,2.29-2.14,3.93-2.14,7.11.91,10.46,2.74,3.02,5.84,5.73,8.97,8.37.61.51,2.2.36,3.09-.05,1.65-.75,3.12-1.92,4.66-2.91.56,1.24,1.13,2.48,1.69,3.73-1.93,1.15-3.96,2.17-5.75,3.5-.61.46-.98,1.74-.89,2.58,1.15,10.67-2.22,19.62-10.02,26.93-.34.32-.83.49-1.26.73-3.77-.19-7.71-3.02-11.23.71-.5-.48-1.01-.97-1.51-1.45-.2-.25-.4-.51-.6-.76-.26-.99-.51-1.99-.77-2.98.36-.25.72-.5,1.08-.75-.36-.25-.72-.5-1.08-.75Z" class="cls-1"></path>
  <path d="m426.17,72.43c-1.78,6.16-3.91,12.24-5.23,18.49-1.27,6.02-1.52,6.9-5.42,6.9-4.08,0-7.2-2.59-7.31-7.14-.13-5.52.52-11.05.87-16.58.11-1.71.39-3.4.51-5.11.44-6.45.85-12.91,1.26-19.23,10.35-1.28,12.17-.69,13.09,12.37.65-1.06,1.46-2.06,1.93-3.2,1.87-4.5,4.62-8.05,9.4-9.76,7.31-2.63,13.3,2.13,12.04,9.73-.37,2.24-.85,4.57-1.83,6.59-2.86,5.91-8.66,7.91-14.86,5.41,1.06-1.9,2.22-3.75,3.15-5.71,1.21-2.56,2.24-5.22,3.35-7.83-.49-.39-.99-.79-1.48-1.18-1.46,1.14-3.52,1.99-4.26,3.49-2.03,4.12-3.51,8.51-5.21,12.79Z" class="cls-1"></path>
  <path d="m488.85,93.2c-11.41,8.58-24.24,5.82-29.57-7.82-4.57-11.7-2.11-23.04,6.88-32.29,6.29-6.48,14.29-6.47,21.83-3.97,6.55,2.17,8.13,14.13,1.1,19.22-4.9,3.55-10.32,6.49-15.81,9.07-2.37,1.12-2.6,2.2-2.09,4.2.09.36.25.7.35,1.06,2.29,8.5,7.43,10.64,15.19,6.34.64-.36,1.31-.66,1.97-.99.05,1.73.1,3.45.15,5.18Zm-18.48-19.39c2.85-1.38,4.58-2.03,6.11-3,4.52-2.86,7.84-6.52,7.1-12.37-.17-1.31-.79-3.51-1.47-3.62-1.5-.24-3.91.07-4.63,1.08-2.27,3.19-4.17,6.71-5.74,10.3-.89,2.05-.86,4.49-1.38,7.6Z" class="cls-1"></path>
  <path d="m539.65,67.81c.87-.34,1.75-.69,2.54-1,.68-6.4,1.34-12.84,2.07-19.29.65-5.7,1.38-11.39,2.06-17.09.1-.86.14-1.73.17-2.6q.19-5.51,4.62-5.47c5.65.05,8.29,1.88,7.98,6.2-.46,6.33-1.45,12.61-2.06,18.93-.41,4.28-.56,8.59-.82,12.89-3.11,3.92-2.06,7.63,3,10.64-1.73,6.48-3.75,12.91-5.1,19.47-1.17,5.67-2.3,7.33-6.83,7.27-3.29-.04-6.08-3.51-6.03-8.08.06-4.76.52-9.53.81-14.29,1.1-2.08,1.23-3.83-1.24-5.17-.64-.35-.79-1.59-1.17-2.42Z" class="cls-1"></path>
  <path d="m687.14,92.87c-2.98,3.45-6.97,5.32-11.16,3.82-4.94-1.77-7.88-6.1-9.05-11.2-3.29-14.37,4.26-28.16,16.58-34.46,7.02-3.59,14.59-4.54,22.3-1.99,3.7,1.23,4.32,2.79,2.97,7.06-1.19-.18-2.38-.31-3.56-.56-4.2-.91-8.32-1.08-12.2,1.23-11.65,5.33-15.12,19.49-14.07,29.1.17,1.59,2.28,2.97,3.49,4.45,1.56.85,3.12,1.7,4.69,2.55Z" class="cls-1"></path>
  <path d="m23.46,37.51c4.81,3.46,5.79,7.83,4.02,12.87-1.38,3.94-4.82,5.52-8.5,6.27-3.09.62-6.3.67-9.47.83C.09,57.94-.09,57.26.01,47.78c.08-7.2.04-14.4.04-21.6,0-5.16.86-6.15,5.98-6.03,4.17.09,8.41.04,12.48.78,8.17,1.49,10.77,8.25,6.14,15.12-.26.39-.6.74-1.19,1.44Zm-16.13,8.41c0,1.24-.29,2.58.09,3.69.34,1,1.4,2.43,2.19,2.46,2.13.07,4.32-.37,6.43-.85,2.37-.54,4.1-1.4,4.14-4.61.04-3.3-1.3-4.79-4.15-5.35-2.25-.44-4.54-.75-6.83-.8-.61-.01-1.61,1.04-1.8,1.76-.3,1.16-.08,2.46-.08,3.7Zm.23-20.39v9.33c3.93.47,7.78.92,10.55-2.05.86-.92.9-3.98.06-4.85-2.84-2.93-6.73-2.89-10.61-2.44Z" class="cls-1"></path>
  <path d="m565.89,50.24c7-4.07,13.22-.98,14.4,3.39,1,3.69,1.19,7.73,1.01,11.58-.39,8.31-1.78,16.6-1.64,24.88.06,3.31,3.1,6.57,4.95,10.16-2.87,2.93-6.89,3.85-11.14,2.35-5.14-1.83-6.79-6.63-6.7-11.29.16-8.29,1.37-16.56,1.98-24.85.24-3.21.07-6.45.08-9.68-.99-2.18-1.97-4.35-2.96-6.53Z" class="cls-1"></path>
  <path d="m97.8,99.96h-6.7c-.16-2.92-.46-5.86-.45-8.79.03-8.2.11-16.41.37-24.61.03-1.04,1.17-2.92,1.84-2.94,5.33-.17,10.77-.62,15.98.23,7.55,1.23,8.63,6.54,8.44,10.93-.25,5.69-4.17,9.46-10.33,10.22-.37.05-.74.06-1.12.08q-8.02.42-8.02,8.55c0,1.96,0,3.92,0,6.33Zm0-31.59c0,3.29-.34,5.83.14,8.21.25,1.24,1.76,2.63,3.02,3.15,1.02.42,2.54-.35,3.83-.58,2.6-.48,4.19-1.96,4.18-4.67,0-2.42-.59-4.62-3.54-5.04-2.38-.34-4.76-.66-7.64-1.06Z" class="cls-1"></path>
  <path d="m185.23,48.18c0-2.91.09-5.13-.03-7.34-.08-1.56-.62-3.11-.65-4.67-.09-4.94-.04-4.94,5.18-4.73,0,7.54.09,15.09-.1,22.64-.03,1.11-1.12,2.73-2.1,3.11-.83.32-2.63-.48-3.32-1.34-3.61-4.49-6.99-9.16-10.47-13.76-.42-.56-.91-1.06-1.7-1.98-.4,5.72-.76,10.92-1.13,16.33-2.07.67-4.21.53-4.25-2.03-.1-6.78.17-13.57.54-20.34.06-1.19,1.47-3.36,1.97-3.28,1.55.25,3.43,1,4.35,2.19,3.46,4.49,6.59,9.23,9.86,13.87.2.28.58.43,1.83,1.32Z" class="cls-1"></path>
  <path d="m148.76,57.46c-7.57.67-13.69-5.93-13.45-13.07.26-7.81,4.57-13.71,14.03-13.8,7.48-.08,13.91,4.63,13.97,12.5.08,11.22-6.69,14.69-14.54,14.37Zm8.11-13.4c-.01-6.69-2.01-8.69-7.65-9.1-4.85-.35-7.7,2.7-7.99,9.56-.19,4.5,3.77,9.3,7.2,9.21,5.61-.15,8.46-3.42,8.45-9.67Z" class="cls-1"></path>
  <path d="m105.92,55.19c-2.09,3.13-3.37,3.36-5.78.36-3.36-4.18-6.39-8.62-9.57-12.93-.57-.78-1.21-1.51-2.5-3.11,0,5.17,0,9.41,0,13.66,0,1.77.14,3.76-2.46,3.69-2.46-.07-2-1.95-2-3.56.02-6.21-.08-12.43.05-18.64.03-1.23.84-2.45,1.3-3.68,1.68.63,3.91.78,4.93,1.98,3.08,3.62,5.68,7.66,8.49,11.51.7.96,1.5,1.86,2.93,3.63v-16.57c2.25.14,4.69-1.87,4.86,2.02-.08,7.21-.16,14.42-.24,21.64Z" class="cls-1"></path>
  <path d="m159.84,89.22c2.58,3.48,4.94,6.65,7.44,10.02-4.74,1.35-5.8.75-9.07-3.9-1.54-2.19-3.39-4.17-5.11-6.24-.22.21-.45.42-.67.64,0,2.4.09,4.8-.03,7.19-.09,1.82-.65,3.28-3.05,3.17-2.5-.12-2.24-1.75-2.24-3.39.01-6.46.07-12.92-.05-19.37-.05-2.51.64-3.73,3.39-3.44,3.53.37,7.28-.09,10.56.95,2.18.7,4.41,3.11,5.36,5.3,1.21,2.8-.42,5.51-2.98,7.26-1.08.74-2.34,1.2-3.55,1.8Zm-7.46-3.68c2.05-.17,3.87.06,5.33-.56,1.19-.51,2.64-1.99,2.7-3.11.06-1.11-1.3-3.1-2.34-3.34-5.2-1.16-5.96-2.06-5.69,4.37.03.85,0,1.7,0,2.64Z" class="cls-1"></path>
  <path d="m46.7,46.02c2.4,3.25,4.7,6.38,7.15,9.7-2.5,1.54-4.61,1.67-6.43-.45-1.75-2.02-3.31-4.22-5.06-6.24-.78-.9-1.84-1.56-3.61-3.02,0,3.37.23,5.59-.08,7.74-.19,1.29-1.21,2.47-1.86,3.69-1.1-1.23-2.97-2.36-3.16-3.72-.47-3.29-.15-6.69-.15-10.05,0-3.11-.04-6.22.01-9.32.03-2.01.85-3.24,3.15-3.04,3.64.3,7.29.57,10.94.72,3.35.14,4.79,2.19,5.33,5.09.64,3.4-.47,6.07-3.73,7.63-.77.37-1.51.78-2.49,1.28Zm-7.88-7.25c-.28.22-.56.45-.84.67,1.09,1.03,2.09,2.81,3.29,2.96,3.71.47,6.76-1.51,6.44-3.76-.41-2.84-2.36-3.66-5.09-3.64-2.62.02-4.63.27-3.81,3.76Z" class="cls-1"></path>
  <path d="m110.53,34.32c-.16-2.15.75-3.11,2.99-3.03,2.98.11,5.97-.14,8.95.03,7.19.42,11.49,8.27,10.31,14.42-1.61,8.44-5.16,11.18-13.97,10.88-2.71-.09-5.96,1.76-8.2-1.41-.03-6.97-.05-13.93-.08-20.9Zm5.33,18.49c3.96.34,7.83.85,9.67-3.15,1.75-3.8,2.56-7.98-.07-11.81-2.4-3.49-6.03-2.84-9.6-2.63v17.59Z" class="cls-1"></path>
  <path d="m143.31,99.71c-3.63,1.27-5.46-.46-6.15-3.29-1.14-4.72-4.8-2.59-7.51-3.09-2.89-.53-4.22,1.39-4.79,3.56-.81,3.05-2.48,3.68-5.64,2.7,1.62-4.09,3.13-8.13,4.83-12.09,1.86-4.34,3.85-8.62,5.9-12.87.92-1.91,2.8-2.34,3.66-.4,3.46,7.91,6.59,15.97,9.8,23.98.16.4-.05.95-.09,1.48Zm-14.87-11.03c.51.5,1.03,1,1.54,1.49,1.24-.78,3.55-1.61,3.51-2.32-.07-1.45-1.41-2.84-2.22-4.26-.94,1.7-1.88,3.39-2.83,5.09Z" class="cls-1"></path>
  <path d="m175.53,99.69c-3.28,1.05-4.6.13-4.57-3.19.07-6.33-.19-12.67-.17-19,0-1.65.05-4.07,2.6-3.43,1.18.3,2.53,2.16,2.75,3.5.35,2.07-.2,4.28-.41,6.96,6.31-1.65,7.28-10.5,15.35-10.64-.86,1.78-1.26,3.11-2.06,4.15-1.49,1.95-3.02,3.94-4.87,5.54-3,2.6-2.51,4.55.15,7.15,2.54,2.49,4.48,5.61,6.91,8.75-5.69,1.87-7.35-2.27-9.81-4.81-1.63-1.69-3.04-3.61-4.9-5.86-.38,4.22-.68,7.58-.98,10.89Z" class="cls-1"></path>
  <path d="m80.62,56.4c-5.73.52-6.03.27-7.84-5.63-1.55,0-3.19.2-4.76-.04-3.73-.57-6.3.39-7.72,4.24-.39,1.05-2.34,1.51-3.58,2.25-.33-.35-.67-.71-1-1.06,3.33-7.88,6.59-15.8,10.05-23.63.83-1.87,4.07-2.04,4.84-.28,3.4,7.85,6.58,15.8,10.01,24.15Zm-9.89-10.27c-.96-2.47-1.75-4.5-2.54-6.53-.44.09-.89.18-1.33.27-.71,1.94-1.42,3.89-2.28,6.26h6.15Z" class="cls-1"></path>
  <path d="m401.37,20.75l-1.27-2.97c.25.06.5.12.75.17.67-2.45,1.34-4.91,2.01-7.36,6.34-.06,12.69-.16,19.03-.15,2.29,0,4.31.14,4.28,3.56-.03,3.2-.54,5.28-4.21,5.4-5.68.19-11.36.46-17.04.75-1.19.06-2.37.39-3.55.59Z" class="cls-1"></path>
  <path d="m223.53,84.14c-.29.82-.57,1.65-.86,2.47-7.74-11.21-9.41-23.34-5.92-36.44,1.88-7.05,5.93-12.68,10.37-18.18.27.8.54,1.6.8,2.39-.94,1.24-1.89,2.48-2.82,3.73-5.19,6.89-7.87,14.93-8.16,23.26-.28,8.01,2.5,15.72,6.59,22.77Z" class="cls-11"></path>
  <path d="m265.27.14c6.24.31,11.79,2.33,16.61,7.01,1.34-1.63,2.44-3.06,3.63-4.4.68-.76,1.66-2.05,2.24-1.92.99.22,1.89,1.28,2.59,2.17.96,1.22,1.7,2.61,2.54,3.93-.69.92-1.39,1.84-2.08,2.76-1.05-1.39-1.97-2.93-3.24-4.07-.34-.31-2.21.28-2.58.92-1.35,2.35,1.34,6.55,4.21,6.85.06,1.04.12,2.07.18,3.11,0,0-.04,0-.04,0l-3.55-.04c-3.67-6.35-8.29-11.51-16.02-12.75-2.57.16-4.42-.58-4.5-3.55Z" class="cls-7"></path>
  <path d="m565.89,50.24c.99,2.18,1.97,4.35,2.96,6.53-1.84-.24-3.2-.03-4.06,2.11-1.66,4.13-3.71,8.11-5.59,12.14-5.07-3.02-6.11-6.72-3-10.64.95-.73,2.04-1.33,2.83-2.2,2.35-2.59,4.59-5.29,6.87-7.94Z" class="cls-1"></path>
  <path d="m265.27.14c.08,2.98,1.93,3.72,4.5,3.55.49,1.02.83,2.15,1.49,3.04,5.55,7.57,9.74,15.63,9.62,25.34-.62,0-1.24,0-1.86,0-.09-1.36-.13-2.74-.27-4.09-.81-7.58-4.4-10.18-10.79-10.8-2.09-.2-4.22.04-6.33.08-.02-.98-.04-1.96-.05-2.93,1.25,0,2.5.02,3.75.03.28.17.55.34.83.51,2.39.26,4.79.52,7.49.81-1.97-6.51-7.23-10-11.89-14.63,1.58-.4,2.56-.65,3.53-.9Z" class="cls-11"></path>
  <path d="m315.38,79.14c-.35,1.05-.58,2.17-1.09,3.13-.42.79-1.17,1.41-1.77,2.11.03-8.73.07-17.45.1-26.17.43,1.65.8,3.31,1.29,4.94.41,1.37.95,2.69,1.44,4.04.01,3.99.03,7.97.04,11.96Z" class="cls-4"></path>
  <path d="m864.05,119.18c.87,2.03,1.74,4.06,2.62,6.1-4.42,3.43-8.44,3.5-11.42.19l3.73-4.43c1.69-.62,3.38-1.24,5.07-1.85Z" class="cls-1"></path>
  <path d="m511.34,88.64c3.92.74,3.83,3.33,2.9,6.3-1.93,1.22-3.86,2.44-5.79,3.67-1.5-.51-3-1.02-4.5-1.53,2.46-2.81,4.93-5.63,7.39-8.44Z" class="cls-1"></path>
  <path d="m290.81,9.68c.69-.92,1.39-1.84,2.08-2.76,3.7-1.91,7.39-3.85,11.12-5.69.71-.35,1.61-.33,2.42-.48-.26.98-.51,1.95-.77,2.93-3.06,1.44-6.51,2.4-9.08,4.45-2.82,2.25-4.83,5.52-7.19,8.35-.06-1.04-.12-2.07-.18-3.11.53-1.23,1.07-2.46,1.6-3.69Z" class="cls-11"></path>
  <path d="m305.66,3.68c.26-.98.51-1.95.77-2.93,1.17-.28,2.35-.83,3.49-.75,1.08.08,2.12.82,3.17,1.28-.57.88-1,1.89-1.73,2.6-2.29,2.25-4.69,4.39-7.04,6.57-.62-.05-1.24-.1-1.87-.16,1.07-2.21,2.14-4.41,3.2-6.62Z" class="cls-7"></path>
  <path d="m539.65,67.81c.38.83.53,2.07,1.17,2.42,2.47,1.34,2.34,3.08,1.24,5.17-.08-.96-.17-1.91-.3-3.45-2.9,1.47-5.47,2.78-8.04,4.09-.56-1.24-1.13-2.48-1.69-3.73,2.54-1.5,5.09-2.99,7.63-4.49Z" class="cls-1"></path>
  <path d="m488.85,93.2c-.05-1.73-.1-3.45-.15-5.18,2.02-2.03,4.04-4.05,6.06-6.08.74.81,1.48,1.61,2.23,2.42-2.71,2.95-5.42,5.89-8.14,8.84Z" class="cls-1"></path>
  <path d="m504.57,110.49c3.52-3.74,7.46-.9,11.23-.71-4.38,2.85-8.04,3.08-11.23.71Z" class="cls-1"></path>
  <path d="m687.14,92.87c-1.56-.85-3.12-1.7-4.69-2.55,1.52-1.49,3.03-2.98,4.55-4.47,1.15.74,2.3,1.49,3.45,2.23-1.1,1.6-2.21,3.2-3.31,4.79Z" class="cls-1"></path>
  <path d="m691.54,83.72c.46-.5.93-1,1.39-1.51.06.46.12.91.18,1.37-.53.05-1.05.09-1.58.14Z" class="cls-1"></path>
  <path d="m501.69,103.79c.36.25.72.5,1.08.75-.36.25-.72.5-1.08.75,0-.5,0-1.01,0-1.51Z" class="cls-1"></path>
  <path d="m690.78,86.69c.21-.77.42-1.54.63-2.31-.21.77-.42,1.54-.63,2.31Z" class="cls-1"></path>
  <path d="m867.21,124.77c.29-.25.58-.51.87-.76-.29.25-.58.51-.87.76Z" class="cls-1"></path>
  <path d="m399.12,10.57c-.23-.1-.46-.21-.68-.31.23.1.46.21.68.31Z" class="cls-1"></path>
  <path d="m266.14,14.86c-.28-.17-.55-.34-.83-.51.28.17.55.34.83.51Z" class="cls-6"></path>
  <path d="m502.46,108.28c.2.25.4.51.6.76-.2-.25-.4-.51-.6-.76Z" class="cls-1"></path>
  <path d="m312.62,58.21c-.03,8.72-.07,17.45-.1,26.17-1.1,9.89-7.27,15.92-19.22,18.63-4.78,1.08-9.59,1.49-14.98-.65,3.65-2.78,6.9-5.02,9.82-7.62.93-.83,1.01-2.63,1.47-3.99.4-1.19.62-2.49,1.24-3.56.76-1.3,1.85-2.41,2.8-3.61-.33-.36-.67-.72-1-1.08-1.89,1.61-3.77,3.22-5.03,4.28-7.96-7.54-15.89-14.84-23.49-22.45-1.29-1.3-2.02-4.21-1.57-6.02,1.97-7.84,5.32-14.87,13.06-18.93,15.12-7.94,35.7-.03,37.01,18.81Zm-22-12.32c-.31.48-.62.95-.94,1.43,2.25,1.6,4.33,4.07,6.78,4.53,2.24.42,4.53-4.03,3.78-6.64-1.79,1.13-3.49,2.2-4.87,3.07-1.75-.88-3.25-1.64-4.75-2.39Zm17.89,36.51c-1,.32-1.6.33-1.84.62-2.03,2.51-4.02,3.06-6.42.36-.47-.53-1.79-.29-2.72-.41,2.37,2.33,2.83,7.16,7.02,5.73,2.22-.76,3.81-3.07,3.95-6.3Zm-33.55-37.09c-.35.5-.7,1.01-1.04,1.51,2.46,1.75,4.91,3.49,7.37,5.24.82-2.35,5.3-2.65,3.55-7.17-1.43,1.51-2.49,2.63-3.63,3.84-2.1-1.15-4.17-2.28-6.24-3.41Zm15.56,24.64c-.29.33-.58.66-.87.99,1.83,2.42,3.23,5.92,6.8,5.57,1.31-.13,4.71-2.19,3.72-5.76-1.8.86-3.47,2.36-4.93,2.18-1.67-.21-3.15-1.92-4.72-2.98Zm-2.76-9.14c-1.79-1.11-3.24-2.01-4.7-2.92l-1.07,1.44c1.98,1.6,3.9,4.41,5.96,4.5,2.53.12,4.73-2.4,5.69-6.43-2.55,1.47-4.28,2.47-5.88,3.4Zm-9.2-1.19c-.3-.47-.6-.94-.89-1.4-.66.16-1.53.11-1.96.52-2.23,2.09-4.25,3.47-6.05-.46-.14-.32-1.27-.18-1.95-.26-.27.33-.54.67-.81,1,1.71,1.69,3.49,4.81,5.1,4.72,2.25-.12,4.38-2.63,6.56-4.12Zm6.44,10.8c-1.56.89-3.14,2.52-4.67,2.49-1.81-.04-3.6-1.52-5.39-2.38-.29.45-.57.9-.86,1.35,2.34,1.67,4.53,3.67,7.09,4.85,1.16.53,4.07-4.49,3.83-6.32Zm24.23-10.82c-.3-.49-.59-.97-.89-1.46-.74.23-1.7.25-2.18.74-1.92,1.99-3.6,2.7-5.58,0-.42-.57-1.8-.45-2.73-.65-.17.33-.34.66-.51.99,1.89,1.64,3.77,4.54,5.68,4.56,2.06.02,4.14-2.67,6.21-4.18Z" class="cls-5"></path>
  <path d="m233.15,41.07c1.88-1.4,3.17-.84,4.74.83,6,6.38,12.15,12.62,18.32,18.83,7.66,7.7,15.4,15.31,23.09,22.98.68.68,1.23,1.49,2.08,2.54-5.14,4.71-11.2,6.75-17.59,8.52-7.34,2.03-13.55-1.31-20.13-3.1-.75-.45-1.49-.9-2.24-1.35-.53-.37-1.05-.74-1.58-1.1-10.38-7.61-15.14-17.9-14.11-30.66.53-6.54,3.79-12.15,7.41-17.49Zm32.94,38.47c-.6-.42-1.63-1.71-2.79-1.84-3.68-.41-7.56,2.62-7.61,5.54-.04,2.38,2.29,4.85,4.61,4.88,2.9.04,5.66-3.55,5.79-8.58Zm-23.58-24.11c-5.86-.54-9.38,1.31-9.46,4.85-.06,2.74,2.3,5.21,4.84,5.04,2.85-.19,6.17-3.27,4.62-9.88Zm3.25,20.78c6.42,1.01,7.81-2.56,8.85-6.4.57-2.12-.33-3.38-2.58-3.4-3.01-.03-6.07.8-7.04,3.7-.63,1.91.5,4.41.77,6.11Z" class="cls-9"></path>
  <path d="m223.53,84.14c-4.1-7.05-6.87-14.76-6.59-22.77.29-8.33,2.97-16.37,8.16-23.26.94-1.25,1.88-2.49,2.82-3.73,3.64-.71,3.98,1.88,4.4,4.39-.82,1.05-1.7,2.06-2.45,3.16-13.2,19.29-5.15,42.19,12.16,51.43,9.5,6.47,26.16,6.38,37.63-2.34.59-.45,1.13-1.25,1.76-1.32,1.37-.15,3.22-.46,4.09.25,1.66,1.36,1.29,3-.52,4.52-6.11,5.13-13.28,7.54-21.01,8.55-16.45,2.14-29.21-4.22-39.05-17.16-.45-.59-.93-1.14-1.39-1.72Z" class="cls-2"></path>
  <path d="m305.66,3.68c-1.07,2.21-2.14,4.41-3.2,6.62-5.4,6.64-7.64,14.41-8.26,23.26-3.75,0-7.56.07-11.35-.07-.67-.02-1.31-.92-1.96-1.42.12-9.71-4.07-17.77-9.62-25.34-.66-.9-1-2.02-1.49-3.04,7.74,1.25,12.36,6.4,16.02,12.75.62,1,1.24,2.01,2.41,3.9.57-1.93.85-2.89,1.14-3.86,0,0,.04,0,.04,0,2.36-2.83,4.37-6.09,7.19-8.35,2.57-2.06,6.02-3.01,9.08-4.45Z" class="cls-3"></path>
  <path d="m242.03,93.36c-17.3-9.24-25.36-32.14-12.16-51.43.75-1.1,1.63-2.11,2.45-3.16.27.76.55,1.53.82,2.29-3.62,5.35-6.88,10.96-7.41,17.49-1.03,12.76,3.73,23.05,14.11,30.66.53.37,1.05.74,1.58,1.1.75.45,1.49.9,2.24,1.35-.55.56-1.09,1.13-1.64,1.69Z" class="cls-11"></path>
  <path d="m261.61,17.25c2.11-.04,4.25-.28,6.33-.08,6.39.63,9.98,3.23,10.79,10.8.15,1.36.19,2.73.27,4.09-.19.95-.38,1.89-.56,2.84-.72-.68-1.49-1.31-2.16-2.03-4.1-4.45-8.18-8.92-12.29-13.37-.74-.8-1.59-1.5-2.39-2.25Z" class="cls-10"></path>
  <path d="m313.63,17.2c-5.34,5.68-10.7,11.39-16.08,17.12-2.15-10.05,1.73-19,16.08-17.12Z" class="cls-10"></path>
  <path d="m290.81,9.68c-.53,1.23-1.07,2.46-1.6,3.69-2.87-.3-5.56-4.5-4.21-6.85.37-.64,2.24-1.23,2.58-.92,1.27,1.15,2.19,2.68,3.24,4.07Z" class="cls-10"></path>
  <path d="m289.34,16.49c-.29.96-.57,1.93-1.14,3.86-1.17-1.89-1.79-2.89-2.41-3.9,1.18.01,2.36.03,3.55.04Z" class="cls-11"></path>
  <path d="m290.62,45.89c1.5.76,3.01,1.51,4.75,2.39,1.38-.87,3.08-1.94,4.87-3.07.75,2.61-1.54,7.05-3.78,6.64-2.46-.46-4.54-2.93-6.78-4.53.31-.48.62-.95.94-1.43Z" class="cls-4"></path>
  <path d="m308.5,82.4c-.15,3.23-1.73,5.55-3.95,6.3-4.19,1.43-4.65-3.4-7.02-5.73.93.12,2.25-.12,2.72.41,2.4,2.7,4.39,2.15,6.42-.36.24-.3.84-.3,1.84-.62Z" class="cls-4"></path>
  <path d="m274.95,45.31c2.07,1.13,4.14,2.27,6.24,3.41,1.14-1.21,2.2-2.33,3.63-3.84,1.76,4.52-2.73,4.82-3.55,7.17-2.46-1.75-4.91-3.49-7.37-5.24.35-.5.7-1.01,1.04-1.51Z" class="cls-4"></path>
  <path d="m290.51,69.95c1.56,1.06,3.05,2.76,4.72,2.98,1.46.18,3.13-1.31,4.93-2.18.99,3.57-2.4,5.63-3.72,5.76-3.57.35-4.97-3.15-6.8-5.57.29-.33.58-.66.87-.99Z" class="cls-4"></path>
  <path d="m287.75,60.82c1.6-.93,3.33-1.93,5.88-3.4-.95,4.03-3.16,6.55-5.69,6.43-2.05-.1-3.97-2.9-5.96-4.5l1.07-1.44c1.45.9,2.91,1.81,4.7,2.92Z" class="cls-7"></path>
  <path d="m278.56,59.63c-2.18,1.49-4.3,4-6.56,4.12-1.61.09-3.39-3.03-5.1-4.72.27-.33.54-.67.81-1,.67.08,1.8-.06,1.95.26,1.79,3.93,3.82,2.55,6.05.46.43-.41,1.3-.36,1.96-.52.3.47.6.94.89,1.4Z" class="cls-4"></path>
  <path d="m285,70.42c.24,1.83-2.68,6.85-3.83,6.32-2.57-1.18-4.75-3.18-7.09-4.85.29-.45.57-.9.86-1.35,1.8.86,3.58,2.34,5.39,2.38,1.54.03,3.11-1.6,4.67-2.49Z" class="cls-4"></path>
  <path d="m309.23,59.6c-2.07,1.51-4.15,4.19-6.21,4.18-1.9-.02-3.79-2.93-5.68-4.56.17-.33.34-.66.51-.99.94.2,2.31.07,2.73.65,1.98,2.7,3.65,1.99,5.58,0,.47-.49,1.44-.5,2.18-.74.3.49.59.97.89,1.46Z" class="cls-6"></path>
  <path d="m266.1,79.54c-.13,5.04-2.9,8.63-5.79,8.58-2.32-.03-4.65-2.5-4.61-4.88.05-2.92,3.94-5.95,7.61-5.54,1.16.13,2.19,1.42,2.79,1.84Z" class="cls-8"></path>
  <path d="m242.51,55.43c1.55,6.61-1.77,9.69-4.62,9.88-2.54.17-4.9-2.3-4.84-5.04.08-3.53,3.6-5.38,9.46-4.85Z" class="cls-8"></path>
  <path d="m245.76,76.21c-.26-1.7-1.4-4.2-.77-6.11.96-2.9,4.03-3.73,7.04-3.7,2.25.02,3.16,1.28,2.58,3.4-1.04,3.84-2.43,7.41-8.85,6.4Z" class="cls-8"></path>
  <path d="m241.43,90.32c-.53-.37-1.05-.74-1.58-1.1.53.37,1.05.74,1.58,1.1Z" class="cls-6"></path>
</svg>